<svg xmlns="http://www.w3.org/2000/svg" width="500" height="500" version="1.2" viewBox="0 0 375 375"><defs><clipPath id="a"><path d="M26.3 26.3h322.4v322.4H26.3Zm0 0"/></clipPath><clipPath id="b"><path d="M187.5 26.3a161.2 161.2 0 1 0 0 322.4 161.2 161.2 0 0 0 0-322.4Zm0 0"/></clipPath><clipPath id="c"><path d="M282 93h19.7v21H282Zm0 0"/></clipPath><clipPath id="d"><path d="M260.2 93H280v21h-19.8Zm0 0"/></clipPath><clipPath id="e"><path d="M272 77h18v29h-18Zm0 0"/></clipPath><clipPath id="f"><path d="M196.4 114H320v57.8H196.4Zm0 0"/></clipPath><clipPath id="g"><path d="M256 104h9.8v10H256Zm0 0"/></clipPath><clipPath id="h"><path d="M245.7 104h9.3v10h-9.3Zm0 0"/></clipPath><clipPath id="i"><path d="M251 96.3h9V111h-9Zm0 0"/></clipPath><clipPath id="j"><path d="M303 104h10v10h-10Zm0 0"/></clipPath><clipPath id="k"><path d="M292.9 104H303v10h-10.1Zm0 0"/></clipPath><clipPath id="l"><path d="M298 96.3h10V111h-10Zm0 0"/></clipPath></defs><g clip-path="url(#a)"><g clip-path="url(#b)"><path fill="#133c0b" d="M26.3 26.3h322.4v322.4H26.3Zm0 0"/></g></g><path fill="#fff" d="M115.6 231.3h-7.8v-37.6h20v7h-12.2v7h14.1v7h-14Zm37.8.7a19 19 0 0 1-13.8-5.8 19.6 19.6 0 0 1-4.1-21.3 19.6 19.6 0 0 1 25.5-10.4 19.5 19.5 0 0 1 0 36c-2.4 1-4.9 1.4-7.6 1.4Zm0-31.5c-2.1 0-4 .5-5.8 1.6a11.7 11.7 0 0 0-5.6 10.3c0 2.3.5 4.3 1.5 6.1a11 11 0 0 0 10 5.9 11.3 11.3 0 0 0 9.8-5.9c1-1.8 1.5-3.8 1.5-6a12 12 0 0 0-5.6-10.4c-1.8-1-3.7-1.6-5.8-1.6Zm37.6 24.3h-4v6.5h-8v-37.6h13.1a15.2 15.2 0 0 1 14.4 9 16 16 0 0 1-1 14.4 14 14 0 0 1-6.3 5.5l8.2 8.7H197Zm-4-7h3.2c3.1 0 5.5-.8 7.1-2.3 1.7-1.5 2.5-3.6 2.5-6.4 0-1.6-.3-3-1-4.2a7.2 7.2 0 0 0-2.6-3 8.2 8.2 0 0 0-4.5-1.2H187Zm64.2-7.1v1.2a20 20 0 0 1-12 18.5c-2.3 1-4.8 1.5-7.5 1.5a18.9 18.9 0 0 1-13.7-5.7 19.7 19.7 0 0 1-4.2-21.3 19.7 19.7 0 0 1 10.3-10.4 19.3 19.3 0 0 1 24.1 7.6l-6.2 4.6a11.5 11.5 0 0 0-16-4.6c-1.8 1-3.1 2.5-4.1 4.3-1 1.9-1.5 3.9-1.5 6.1a12.2 12.2 0 0 0 5.6 10.3c1.7 1 3.6 1.6 5.7 1.6a12 12 0 0 0 6.3-1.7 9.1 9.1 0 0 0 4-5h-10v-7Zm29.5 20.6h-23.4v-37.6h20v7h-12.1v7h14v7h-14v9.5h15.5ZM194 264l10.6-22h8.1l-19.1 38.2-8.2-15.5-7.8 15.5-20-38.2h9l11.3 22 3.6-6.8-8-15.2h9Zm46 15.6h-23.3V242h20v7h-12.2v7h14.2v7h-14.2v9.5H240Zm19.4 0h-13.1V242h12c2.4 0 4.4.3 6.2 1a9 9 0 0 1 4.3 3.2 10 10 0 0 1 1.5 5.7c0 2.6-.9 4.7-2.6 6.4a10.5 10.5 0 0 1 5 9.2c0 2.5-.6 4.7-1.8 6.5a12.3 12.3 0 0 1-5 4.1 15 15 0 0 1-6.5 1.5Zm-5.3-7h5.6a5 5 0 0 0 3.7-1.4c.9-.9 1.3-2 1.3-3.5s-.4-2.7-1.3-3.6a5.4 5.4 0 0 0-3.7-1.3H254Zm0-16.6h4c1.2 0 2.2-.2 2.7-.5.6-.4 1-.9 1.2-1.4.2-.6.3-1 .3-1.6 0-1.4-.4-2.4-1.3-2.8-.9-.4-1.9-.7-3-.7h-3.9Zm-128.4 14.8c-1.5 0-2.4-1.1-2.8-3.4l-.1-2V263a7.1 7.1 0 0 1-5.8 3.3 2 2 0 0 1-1.6-.8c-.4-.5-.7-1.2-1-2a13.4 13.4 0 0 1 1.3-8.7 7 7 0 0 1 1.8-2 4 4 0 0 1 2.5-.8 3 3 0 0 1 1.8.4l1 1 .6 1.3a401.2 401.2 0 0 1 1.8-11c.4-1.6.8-3 1.4-4.3a8.3 8.3 0 0 1 2-2.9c.9-.6 1.8-1 3-1 .7 0 1.3.2 1.7.7.5.4.8 1 1 1.7.3.7.4 1.5.3 2.3l-.3 2.8a28 28 0 0 1-4.4 10.1c-.8 1-1.6 1.8-2.5 2.4a134.8 134.8 0 0 0-.8 9.1c0 1.2 0 2.2.2 3 0 .7.3 1 .7 1 .3 0 .8-.3 1.2-.8l1.5-2.3a39.4 39.4 0 0 0 2.8-6.4 134.4 134.4 0 0 0 1.5-3.7c.1-.2.3-.2.7-.2.3.1.5.3.5.6l-.3.8a85 85 0 0 1-3.2 7.9l-2 3.3a10 10 0 0 1-2.2 2.3 4 4 0 0 1-2.2.8Zm1.9-17.4a25.7 25.7 0 0 0 5.3-10.4 15.6 15.6 0 0 0 .4-4.2c0-.4 0-.7-.2-1-.1-.2-.3-.3-.6-.2-.6 0-1.2.4-1.6 1-.5.7-.9 1.5-1.2 2.5a26.2 26.2 0 0 0-1.4 6.6 99.4 99.4 0 0 0-.7 5.7Zm-8.4 10.9c.3 0 .7-.2 1-.5.5-.3.9-.7 1.2-1.1a14.6 14.6 0 0 0 1.8-2.8l.2-1.6a74.9 74.9 0 0 1-1.3-3.7c-.3-.3-.6-.5-1.1-.5-.4 0-.8.2-1.1.7l-1 1.8a16 16 0 0 0-.8 4.6c0 .9.1 1.6.3 2.2.1.6.4.9.8.9Zm26.4 6.4a2 2 0 0 1-1.7-.7 4 4 0 0 1-.8-2.1 27.7 27.7 0 0 1 0-6c-1.6 3.4-3.2 5-5 5a2 2 0 0 1-1.6-.6 3 3 0 0 1-.8-1.7c-.2-.7-.2-1.5-.2-2.4a22.5 22.5 0 0 1 .7-5 61.1 61.1 0 0 1 .6-2.4c.1-.4.4-.7.8-.9a3 3 0 0 1 2.7.3c.3.3.4.6.2 1a24 24 0 0 0-1 4.2 26 26 0 0 0-.3 4.2c0 .5.3.7.5.7.5 0 1-.4 1.4-1.2a314.1 314.1 0 0 0 3-7.5c0-.5.4-.9.8-1a3 3 0 0 1 1.5-.3c.5 0 1 .2 1.3.5.3.3.5.6.4 1a57.6 57.6 0 0 0-1.3 11c.1.7.3 1 .5 1s.4-.2.6-.6l.7-1.2a17 17 0 0 0 1.1-3l.7-2.3a277.5 277.5 0 0 0 1.4-5.5c.1-.2.3-.2.6-.1.3 0 .5.2.5.3v.4a225.6 225.6 0 0 1-2 7.5 39.3 39.3 0 0 1-2.2 5c-.4.8-1 1.4-1.4 1.8-.5.4-1 .6-1.7.6Zm0 0"/><g clip-path="url(#c)"><path fill="#75b22c" d="M300 93.7a39 39 0 0 0-5.1.5c-5 1.2-10 3.8-11.6 8.8a21.5 21.5 0 0 0-.9 9.5A36.2 36.2 0 0 1 296.7 97a35.4 35.4 0 0 0-13 16.8c1.4 0 4.1-.3 6-.5a11 11 0 0 0 6.7-3.3 13 13 0 0 0 3.4-6.8l.7-5c0-.8.2-1.6.4-2.4l.8-2.2h-1.8Zm0 0"/></g><g clip-path="url(#d)"><path fill="#75b22c" d="M262 93.7a39.1 39.1 0 0 1 5 .5c5 1.2 10 3.8 11.6 8.8.8 2.5 1.1 5.1 1 7.7l-.1 1.8A36.2 36.2 0 0 0 265.2 97c6 4.1 10.6 10.1 13 16.8-1.4 0-4.2-.3-6-.5a11 11 0 0 1-6.7-3.3 13 13 0 0 1-3.4-6.8c-.4-1.7-.4-3.3-.7-5 0-.8-.2-1.6-.4-2.4l-.8-2.2h1.8Zm0 0"/></g><g clip-path="url(#e)"><path fill="#75b22c" d="M289.7 95.1a13.2 13.2 0 0 0-8 10.5l-.8-19.1-.8 19.1a13.3 13.3 0 0 0-8-10.5c.6-2.2 1.4-4.3 2.3-5.9.9-1.6 2-3 4-6.6l2.5-5.5 2.7 5.5c1.9 3.6 3 5 3.9 6.6 1 1.6 1.7 3.7 2.2 6Zm0 0"/></g><g clip-path="url(#f)"><path fill="#75b22c" d="M291.2 161.6c-2.6-1-5.2-2.4-7.4-4.2a14 14 0 0 1-5-14.7v-.1c.7-7 6.3-11.6 13.4-14.7a82 82 0 0 1 22-5.3c1.3-.2 2-.5 2.4-1.1.4-.5.5-1.2.5-2.2h-70.7v18.8c3 .8 5.8 2.3 6.5 5.6l.3 1.2c1 4.6-.7 8.3-3.5 11.2a26.5 26.5 0 0 1-9.1 5.5h8.1a22 22 0 0 1 34.8 0Zm27.9-42.3c0 1.4-.2 2.5-.8 3.3-.8 1.1-2 1.7-3.8 2a78 78 0 0 0-21.5 5.2c-6.8 3-12.2 7.4-12.3 14-.1 3.3.9 5.7 2.6 7.4 2 2 4.9 3 8.3 3.4l.7.4 6 7 .2.6v9.2H283l-.6-.3a25 25 0 0 0-16.1-5.5c-6.2 0-12.4 2-17 5.5l-.6.3h-15.5v-9.6l.3-.3 7.4-7.2.6-.3c3.6-.5 6.1-1.4 7.6-3 1.5-1.3 2.2-3.3 2-5.8 0-5.5-6.5-6-11.6-6.5h-1.2a74.1 74.1 0 0 1-27-6 27 27 0 0 1-14.3-13.7l-.6-1.4h41.1v-1.5h6.9V114h75.5v5.2Zm-72.7-2.8v.8h71.5v-1.2h-71.5Zm-2 2.8v-.8h-4.9V137h.2l4.7.6Zm-6.9.7h-38c2.5 5 7.1 8.8 12.6 11.3 7.6 3.6 17 5.2 25.4 5.7Zm12.2 43.6v5.2c4.7-3 10.7-4.8 16.6-4.8 5.5 0 11 1.5 15.7 4.7V163a18 18 0 0 0-4.3-4 19.9 19.9 0 0 0-28 4.6Zm-2 6.2v-6.2h-12.5v6.2Zm36.3 0h12.5v-6.2H284Zm-1.1-16.3c.6.8 1.4 1.6 2.2 2.3a27 27 0 0 0 9.4 4.9l-3.5-4.1c-3.2-.5-6-1.4-8.1-3.1Zm-34.3.9c-1.7 1-3.9 1.6-6.5 2l-4.3 4 .9-.2a25.8 25.8 0 0 0 9.9-5.8"/></g><g clip-path="url(#g)"><path fill="#75b22c" d="M264.7 104.3a18.8 18.8 0 0 0-2.4.3c-2.4.5-4.8 1.8-5.6 4.2-.3 1.2-.5 2.4-.4 3.7v.8c1.5-3 4-5.7 6.9-7.4a17 17 0 0 0-6.3 8.1l2.9-.2c1.2-.1 2.4-.8 3.2-1.6a7 7 0 0 0 1.7-3.3l.3-2.4a9.1 9.1 0 0 1 .6-2.2h-.9Zm0 0"/></g><g clip-path="url(#h)"><path fill="#75b22c" d="M246.5 104.3a18.6 18.6 0 0 1 2.4.3c2.4.5 4.8 1.8 5.6 4.2.4 1.2.5 2.4.5 3.7v.8c-1.6-3-4-5.7-7-7.4 3 2 5.2 4.9 6.3 8.1l-2.9-.2a5.3 5.3 0 0 1-3.2-1.6 6 6 0 0 1-1.6-3.3l-.3-2.4c0-.4-.2-.8-.3-1.1 0-.4-.3-1-.3-1h.8Zm0 0"/></g><g clip-path="url(#i)"><path fill="#75b22c" d="M259.8 105a6.4 6.4 0 0 0-3.8 5l-.4-9.2-.4 9.2-.3-1.3c-.6-1.9-2-3-3.5-3.7.3-1 .6-2 1-2.8l2-3.2c.5-1.1 1-2 1.2-2.7L257 99l1.9 3.2c.4.7.8 1.7 1 2.8Zm0 0"/></g><g clip-path="url(#j)"><path fill="#75b22c" d="M312 104.3a18.7 18.7 0 0 0-2.5.3c-2.4.5-4.8 1.8-5.6 4.2-.4 1.2-.5 2.4-.5 3.7l.1.8c1.5-3 4-5.7 6.9-7.4a17 17 0 0 0-6.3 8.1l2.9-.2c1.2-.1 2.4-.8 3.2-1.6a7 7 0 0 0 1.7-3.3l.3-2.4c0-.4 0-.8.2-1.1 0-.4.4-1 .4-1h-.9Zm0 0"/></g><g clip-path="url(#k)"><path fill="#75b22c" d="M293.7 104.3a18.6 18.6 0 0 1 2.4.3c2.4.5 4.8 1.8 5.6 4.2.4 1.2.5 2.4.5 3.7l-.1.8c-1.5-3-4-5.7-6.9-7.4 3 2 5.1 4.9 6.3 8.1l-2.9-.2a5.3 5.3 0 0 1-3.2-1.6 6 6 0 0 1-1.6-3.3l-.4-2.4c0-.4 0-.8-.2-1.1 0-.4-.3-1-.3-1h.8Zm0 0"/></g><g clip-path="url(#l)"><path fill="#75b22c" d="M307 105a6.4 6.4 0 0 0-3.8 5l-.4-9.2-.4 9.2-.3-1.3c-.6-1.9-2-3-3.5-3.7.3-1 .6-2 1-2.8l2-3.2c.5-1.1 1-2 1.2-2.7l1.3 2.7 1.9 3.2c.4.7.8 1.7 1 2.8Zm0 0"/></g><path fill="#fff" d="M129.4 107.3c-.3 0-.5 0-.9-.2l-.7-.7c-.2-.2-.3-.4-.2-.5l6.1-5.2c.3-.2.7-.2 1.3.1.5.3 1 .8 1.5 1.3.5.6.8 1.1 1 1.6.2.5 0 .9-.4 1Zm-4.8 69c-3.2 0-6.1-.7-8.6-2a14.5 14.5 0 0 1-8.2-13.3c0-2.7.6-5.1 1.8-7.3 1.1-2.2 2.8-4 4.9-5.6 2-1.5 4.5-2.5 7.2-3.1a16.1 16.1 0 0 1-4.1-5 25.1 25.1 0 0 1-2.4-14.4c.3-2.6 1-5 2.1-7.2 1.1-2.1 2.6-3.9 4.5-5.2 2-1.3 4.2-2 6.8-2 2.3 0 4.2.5 5.7 1.4 1.6 1 2.8 2.2 3.7 3.8.9 1.5 1.5 3.2 1.8 5a18.3 18.3 0 0 1-1.4 10.7 11 11 0 0 1-2.8 3.8 6.2 6.2 0 0 1-4 1.4 6 6 0 0 1-4.4-1.5 6 6 0 0 1-1.7-4c-.1-1.5.3-3.2 1.3-5 .4-.7 1-.9 1.7-.5.3.2.5.4.5.8.1.3 0 .6-.2.9a6 6 0 0 0-1 3.3c.1 1 .5 1.9 1.2 2.5.7.7 1.5 1 2.6 1 1.4 0 2.5-.5 3.4-1.6.9-1 1.5-2.3 2-3.8a18.7 18.7 0 0 0-.2-10 10 10 0 0 0-2-3.9 4 4 0 0 0-3.2-1.5c-1.8 0-3.4.6-4.6 1.8a12 12 0 0 0-3 4.6 21.4 21.4 0 0 0-1.1 12.3c.3 2 .9 3.8 1.7 5.6.9 1.8 2 3.3 3.2 4.4a6.4 6.4 0 0 0 4.4 1.7c.3 0 .6.1.8.4.3.2.4.5.4.9 0 .3-.1.6-.4.8a1 1 0 0 1-.8.4c-3.2 0-6 .6-8.6 1.7-2.6 1-4.6 2.6-6.1 4.7a12.9 12.9 0 0 0-.7 13.5 11.6 11.6 0 0 0 10.5 6.3c2.3 0 4.3-.5 6.2-1.3 2-.7 3.7-1.8 5.2-3a42.1 42.1 0 0 0 7.1-8.3 46.2 46.2 0 0 0 6.3-13.6c.3-.8.8-1 1.5-.9.8.2 1.1.7 1 1.5l-1.7 4.7a75 75 0 0 1-5 9.6c-2.8 4.5-6.2 8-10.2 10.6a24 24 0 0 1-13 3.8ZM63 174c-1.2 0-2.3-.3-3.2-.8-1-.5-1.7-1.2-2.1-2-.5-1-.5-1.9-.2-2.8.3-1.2 1-2.1 2-2.8a10.4 10.4 0 0 1 7.8-1.4 94.9 94.9 0 0 0 3.2-19 514.5 514.5 0 0 0 .8-15c0-2.4-.3-4.6-.7-6.6-.3-2-1-3.7-2-5a4.8 4.8 0 0 0-4-1.9c-1.5 0-2.6.6-3.3 1.9a11 11 0 0 0-1.5 5c-.3 2-.3 4.2-.1 6.7a72.5 72.5 0 0 0 2.7 14.2l2 5c.4.6.3 1.2-.4 1.7a1 1 0 0 1-.9.1c-.3 0-.6-.3-.7-.5a72.9 72.9 0 0 1-5.2-24.2c0-2.5.3-4.7.9-6.6a10 10 0 0 1 3-4.8 8.5 8.5 0 0 1 5.7-1.7c2.8 0 5 .8 6.7 2.4a15 15 0 0 1 3.5 6.9 44 44 0 0 1 1.2 10.2 158.3 158.3 0 0 1-1.8 24.4c-.5 3.8-1.5 7-2.8 9.7l1.8 1.4 3 2.3c1.2.8 2.5 1.4 3.9 2 1.4.5 2.9.6 4.4.5 1.6-.2 3.1-.9 4.7-2 1.5-1.2 3-3.1 4.4-5.7a72.3 72.3 0 0 0 4.9-11c.3-.8.8-1 1.6-.7.8.3 1 .8.7 1.6a67.3 67.3 0 0 1-5 11.3c-1.6 2.9-3.2 5-5 6.2a11.5 11.5 0 0 1-10.5 2c-1.7-.6-3.3-1.2-4.7-2a41 41 0 0 1-3.5-2.3l-2-1.5a11.2 11.2 0 0 1-4.1 3.7 11 11 0 0 1-5.2 1Zm-.8-2.8a4 4 0 0 0 2.4-1.8l1.8-2.8a9 9 0 0 0-4.2.4c-1.3.4-2.1 1.1-2.4 2-.1.6.1 1.1.6 1.6a2 2 0 0 0 1.8.6Zm37.3-43.1c0 .4-.3.6-.7.6-.3 0-.7 0-1-.2a.9.9 0 0 1-.6-.6l-.7-10.7c0-.7.2-1.2.7-1.5.6-.3 1.2-.4 2-.4.6 0 1.3.1 1.8.3.6.2.8.5.7.8Zm114 25.3c.6.3.8.8.5 1.5-1.2 3-2.5 5.3-4 6.8a11 11 0 0 1-4.5 3.2c-1.6.5-3.2.8-4.9.8a17 17 0 0 1-4 6 9 9 0 0 1-6.6 2.6c-2.2 0-4-.6-5.4-1.6a11.4 11.4 0 0 1-3.3-4.2 17.7 17.7 0 0 1-.9-11 9.8 9.8 0 0 1 2-4.1c1-1.1 2.2-1.7 3.6-1.7.6 0 1.5.3 2.6.9.2-2 .8-3.8 2-5.3a6 6 0 0 1 5-2.3c1.8 0 3.3.6 4.2 1.7 1 1 1.7 2.5 2 4.3a34.2 34.2 0 0 1-.6 12.2c2.4.2 4.5-.5 6.3-2.1 1.7-1.6 3.2-4 4.3-7.2.1-.4.4-.6.7-.7.4-.1.7 0 1 .2Zm-14.8 9.8.8-5.6c.2-1.8.2-3.5 0-5a8 8 0 0 0-1.2-3.7 3 3 0 0 0-2.7-1.4c-1.2 0-2.1.4-2.9 1.2-.7.7-1.2 1.7-1.4 2.9-.2 1.2-.2 2.4 0 3.7a13 13 0 0 0 1.3 3.8 8.3 8.3 0 0 0 2.5 3 6 6 0 0 0 3.6 1Zm-6.3 7.9c1.2 0 2.2-.6 3.3-1.7 1-1 1.8-2.4 2.4-3.8a10.6 10.6 0 0 1-7.7-5.4c-.8-1.3-1.3-2.7-1.6-4.2a17.7 17.7 0 0 0-1 9.6c.4 1.6.9 3 1.6 4 .8 1 1.8 1.5 3 1.5Zm-34.7 3.1c-1.7-.3-3-1-3.9-2.4a9.8 9.8 0 0 1-1.5-4.8 33.4 33.4 0 0 1 5.3-18.6 15 15 0 0 1 3.9-4 5.7 5.7 0 0 1 8 1.2 7.7 7.7 0 0 1 1.3 4.2c0 1.6-.2 3.1-.9 4.5-.3.8-.9 1-1.6.7l-.7-.7v-1a7 7 0 0 0 .6-2.3v-2c-.1-.6-.4-1-.8-1-.5-.1-1.2.3-2 1.4-1 1-1.7 2.3-2.6 4a50.3 50.3 0 0 0-3.8 11 11 11 0 0 0-.1 4.4c.2 1.2.8 1.9 1.8 2 .8.2 1.9-.3 3.1-1.2a75.3 75.3 0 0 0 12-14.6 78 78 0 0 0 2.8-4.4c.4-.7 1-.9 1.7-.5.8.4 1 1 .5 1.7a100.6 100.6 0 0 1-8.5 12.7c-1.6 2-3.3 3.8-5 5.3a23.8 23.8 0 0 1-5 3.6 7.4 7.4 0 0 1-4.6.9Zm0 0"/></svg>