<svg xmlns="http://www.w3.org/2000/svg" width="100" height="100" viewBox="-6.4 -6.4 76.8 76.8"><rect id="SVGRepo_bgCarrier" width="76.8" height="76.8" x="-6.4" y="-6.4" fill="#FFCE43" stroke-width="0" rx="38.4"/><g id="SVGRepo_iconCarrier"><defs><style>.cls-2{fill:#61bee5}.cls-4{fill:#cbd0d2}.cls-5{fill:#f03800}</style></defs><g id="video_promotion" data-name="video promotion"><circle cx="10.8" cy="14.5" r="1.3" style="fill:none"/><path d="M6.9 17.5a1 1 0 0 1 1 .2 4.4 4.4 0 0 0 1.6 1 1 1 0 0 1 .7.7l.2 1a5.7 5.7 0 0 0 .9 0l.1-1a1 1 0 0 1 .7-.7 4.4 4.4 0 0 0 1.7-1 1 1 0 0 1 1-.2l.8.3a5.7 5.7 0 0 0 .5-.8l-.7-.6a1 1 0 0 1-.3-1 4.3 4.3 0 0 0 0-1.9 1 1 0 0 1 .3-1l.7-.5a5.7 5.7 0 0 0-.5-.8l-.8.3a1 1 0 0 1-1-.2 4.4 4.4 0 0 0-1.7-1 1 1 0 0 1-.7-.7l-.1-.9a5.7 5.7 0 0 0-1 0l-.1.9a1 1 0 0 1-.7.7 4.4 4.4 0 0 0-1.6 1 1 1 0 0 1-1 .2l-.9-.3a5.8 5.8 0 0 0-.4.8l.6.6a1 1 0 0 1 .4 1 4.4 4.4 0 0 0 0 1.9 1 1 0 0 1-.4 1l-.6.5a5.8 5.8 0 0 0 .4.8Zm4-6.3a3.3 3.3 0 1 1-3.4 3.3 3.3 3.3 0 0 1 3.3-3.3Z" class="cls-2"/><path d="M3.4 17A7.8 7.8 0 0 0 5 19.6a1 1 0 0 0 1 .4l1-.3a6.4 6.4 0 0 0 1.3.8l.2 1a1 1 0 0 0 .8.8 7.8 7.8 0 0 0 3 0 1 1 0 0 0 .8-.8l.2-1a6.4 6.4 0 0 0 1.4-.8l1 .3a1 1 0 0 0 1-.3 7.8 7.8 0 0 0 1.5-2.6 1 1 0 0 0-.3-1l-.8-.7a6.4 6.4 0 0 0 0-1.6l.8-.7a1 1 0 0 0 .3-1 7.8 7.8 0 0 0-1.5-2.6 1 1 0 0 0-1-.3l-1 .3a6.4 6.4 0 0 0-1.4-.8l-.2-1a1 1 0 0 0-.8-.8 7.8 7.8 0 0 0-3 0 1 1 0 0 0-.8.8l-.2 1a6.4 6.4 0 0 0-1.3.8l-1-.3a1 1 0 0 0-1 .3A7.8 7.8 0 0 0 3.3 12a1 1 0 0 0 .3 1l.8.7a6.4 6.4 0 0 0 0 1.6l-.8.6a1 1 0 0 0-.3 1.1Zm2.8-.6a1 1 0 0 0 .4-1 4.4 4.4 0 0 1 0-1.9 1 1 0 0 0-.4-1l-.6-.5a5.8 5.8 0 0 1 .4-.8l.9.3a1 1 0 0 0 1-.2 4.4 4.4 0 0 1 1.6-1 1 1 0 0 0 .7-.7l.2-.9a5.7 5.7 0 0 1 .9 0l.1.9a1 1 0 0 0 .7.7 4.4 4.4 0 0 1 1.7 1 1 1 0 0 0 1 .2l.8-.3a5.7 5.7 0 0 1 .5.8l-.7.6a1 1 0 0 0-.3 1 4.3 4.3 0 0 1 0 1.9 1 1 0 0 0 .3 1l.7.5a5.7 5.7 0 0 1-.5.8l-.8-.3a1 1 0 0 0-1 .2 4.4 4.4 0 0 1-1.7 1 1 1 0 0 0-.7.7l-.1 1a5.7 5.7 0 0 1-1 0l-.1-1a1 1 0 0 0-.7-.7 4.4 4.4 0 0 1-1.6-1 1 1 0 0 0-1-.2l-.9.3a5.8 5.8 0 0 1-.4-.8Z"/><path d="M10.8 17.8a3.3 3.3 0 1 0-3.3-3.3 3.3 3.3 0 0 0 3.3 3.3Zm0-4.6a1.3 1.3 0 1 1-1.3 1.3 1.3 1.3 0 0 1 1.3-1.3Z"/><path d="M33 54.8h3.1V59H33z" style="fill:#ffcebf"/><path d="M37 52.8h-5a1 1 0 0 0-1 1V60a1 1 0 0 0 1 1h5a1 1 0 0 0 1-1v-6.2a1 1 0 0 0-1-1ZM36 59h-3v-4.2h3Z"/><path d="M40.6 52.3h3.1V59h-3.1z" class="cls-4"/><path d="M44.7 50.3h-5a1 1 0 0 0-1 1V60a1 1 0 0 0 1 1h5a1 1 0 0 0 1-1v-8.7a1 1 0 0 0-1-1Zm-1 8.7h-3v-6.7h3Z"/><path d="M48.3 48.3h3.1V59h-3.1z" class="cls-2"/><path d="M52.4 46.3h-5.1a1 1 0 0 0-1 1V60a1 1 0 0 0 1 1h5a1 1 0 0 0 1-1V47.3a1 1 0 0 0-1-1Zm-1 12.7h-3.1V48.3h3Z"/><path d="M55.9 45H59v14h-3.1z" class="cls-5"/><path d="M60 43h-5a1 1 0 0 0-1 1v16a1 1 0 0 0 1 1h5a1 1 0 0 0 1-1V44a1 1 0 0 0-1-1Zm-1 16h-3V45h3Z"/><path d="m21 34 7.1-3a1 1 0 0 1 1.4 1v7H59V9H21Zm19-20a8 8 0 1 1-8 8 8 8 0 0 1 8-8Zm-8 20h16a1 1 0 0 1 0 2H32a1 1 0 0 1 0-2Z" style="fill:#d8d8fc"/><path d="M32 36h16a1 1 0 0 0 0-2H32a1 1 0 0 0 0 2Z"/><path d="M40 28a6 6 0 1 0-6-6 6 6 0 0 0 6 6Zm-3.5-8.8a1 1 0 0 1 1.5-.9l5.6 2.8a1 1 0 0 1 0 1.8L38 25.7a1 1 0 0 1-1.5-.9Z" class="cls-4"/><path d="M40 30a8 8 0 1 0-8-8 8 8 0 0 0 8 8Zm0-14a6 6 0 1 1-6 6 6 6 0 0 1 6-6Z"/><path d="M21 5h38v2H21z" style="fill:#61729b"/><path d="M38.6 20.8v2.4l2.3-1.2-2.3-1.2z" class="cls-5"/><path d="M37 25.7a1 1 0 0 0 1 0l5.6-2.8a1 1 0 0 0 0-1.8L38 18.3a1 1 0 0 0-1.5.9v5.6a1 1 0 0 0 .5.9Zm1.6-4.9 2.3 1.2-2.4 1.2Z"/><path d="M23.9 34.9 12 39.7v9.1l11.9 4.8V34.9z" class="cls-2"/><path d="m25.9 54.4 1.6.6V33.5l-1.6.6v20.3zM9.3 48.5h.7V40h-.8a4.3 4.3 0 0 0 0 8.5ZM12 59h1.5v-7.4L12 51v8z" style="fill:#e66565"/><path d="M60 3H20a1 1 0 0 0-1 1v30.7L10.8 38H9.2a6.3 6.3 0 0 0 0 12.5h.8V60a1 1 0 0 0 1 1h3.5a1 1 0 0 0 1-1v-7.6l12.6 5a1 1 0 0 0 1.4-.9V41H60a1 1 0 0 0 1-1V4a1 1 0 0 0-1-1ZM27.5 55l-1.6-.6V34l1.6-.6Zm-14 4H12v-8l1.5.6ZM9.2 40h.8v8.5h-.8a4.3 4.3 0 0 1 0-8.5Zm2.8 8.8v-9.1l12-4.8v18.7ZM59 39H29.5v-7a1 1 0 0 0-1.4-1L21 34V9h38Zm0-32H21V5h38Z"/></g></g></svg>