<svg xmlns="http://www.w3.org/2000/svg" xml:space="preserve" width="100" height="100" viewBox="0 0 512 512"><circle cx="256" cy="256" r="256" style="fill:#ffce43"/><path d="M76 304V128.4c0-5 3.2-8.4 8-8.4h328c4.8 0 8 3.4 8 8.4V304H76z" style="fill:#1e2c33"/><path d="M76 304v32c0 4.8 3.2 8 8 8h328c4.8 0 8-3.2 8-8v-32H76z" style="fill:#f5f5f5"/><path d="M92 140h312v148H92z" style="fill:#586874"/><path d="M204 344h88v36h-88z" style="fill:#e6e6e6"/><path d="M320 388a8 8 0 0 0-8-8H184a8 8 0 0 0-8 8 8 8 0 0 0 8 8h128a8 8 0 0 0 8-8z" style="fill:#f5f5f5"/><circle cx="248" cy="324" r="8" style="fill:#1e2c33"/><path d="M436 388c0 4-4 8-8 8h-80c-4 0-8-2.4-8-7.6V248c0-4 4-8 8-8h80c4 0 8 4 8 8v140z" style="fill:#e6e6e6"/><path d="M344 256h88v116h-88z" style="fill:#1e2c33"/><path d="M348 260h80v108h-80z" style="fill:#586874"/><circle cx="388" cy="244" r="2" style="fill:#263740"/><path d="M398.3 252h-20.5c-1 0-1.8-1-1.8-2s.8-2 1.8-2h20.5c1 0 1.8 1 1.8 2s-.8 2-1.8 2zM388 376a8 8 0 1 0 0 16 8 8 0 0 0 0-16z" style="fill:#263740"/><path d="M340 268a4 4 0 0 1-4-4v-8a4 4 0 1 1 8 0v8a4 4 0 0 1-4 4zm0 20a4 4 0 0 1-4-4v-4a4 4 0 1 1 8 0v4a4 4 0 0 1-4 4zm0 16a4 4 0 0 1-4-4v-4a4 4 0 1 1 8 0v4a4 4 0 0 1-4 4zm80-60h-4a4 4 0 1 1 0-8h4a4 4 0 1 1 0 8z" style="fill:#e6e6e6"/></svg>