<svg xmlns="http://www.w3.org/2000/svg" xml:space="preserve" width="100" height="100" viewBox="0 0 512 512"><circle cx="256" cy="256" r="256" style="fill:#ffce43"/><path d="M212.2 365h88v36h-88z" style="fill:#e6e6e6"/><path d="M84 328V149.4c0-5 3.4-5.4 8.2-5.4h328c4.8 0 7.8.4 7.8 5.4V328H84z" style="fill:#1e2c33"/><path d="M84 328v29c0 4.8 3.4 11 8.2 11h328c4.8 0 7.8-6.2 7.8-11v-29H84z" style="fill:#f5f5f5"/><path d="M100 160h312v152H100z" style="fill:#fff"/><path d="M328.2 409a8 8 0 0 0-8-8h-128a8 8 0 0 0-8 8 8 8 0 0 0 8 8h128a8 8 0 0 0 8-8z" style="fill:#f5f5f5"/><circle cx="256.2" cy="345" r="8" style="fill:#1e2c33"/><path d="M356.4 209.3a26 26 0 1 0 0 52.1 26 26 0 0 0 0-52zm0 39a13 13 0 1 1 0-26 13 13 0 0 1 0 26z" style="fill:#1e2c33"/><path d="m396.8 236.3-1.2-.2a39 39 0 0 0-1.3-11.3l1.2-.4a9.8 9.8 0 1 0-9.6-17.2l-1 .9a38.8 38.8 0 0 0-8.8-7l.4-1.3a9.8 9.8 0 0 0-18.9-5.3l-.2 1.2A39 39 0 0 0 346 197c-.1-.4-.1-.8-.4-1.2a9.8 9.8 0 0 0-17.2 9.6l.9 1a38.7 38.7 0 0 0-7 8.8l-1.3-.4a9.8 9.8 0 1 0-5.3 18.9l1.2.2a39 39 0 0 0 1.3 11.3c-.4.1-.8.1-1.1.4a9.8 9.8 0 0 0 9.5 17.1l1-.8c2.6 2.8 5.5 5.1 8.9 7l-.5 1.2a9.9 9.9 0 0 0 19 5.4l.1-1.2c3.9 0 7.7-.4 11.3-1.4.1.5.1.9.4 1.2a9.8 9.8 0 0 0 17.2-9.5l-.9-1a34 34 0 0 0 7-8.9l1.3.5a9.9 9.9 0 0 0 5.3-19zm-40.4 29.4a30.4 30.4 0 1 1 0-60.8 30.4 30.4 0 0 1 0 60.8z" style="fill:#1e2c33"/><path d="M112 260h20v40h-20z" style="fill:#cc584c"/><path d="M152 288h20v12h-20z" style="fill:#c23527"/><path d="M272 252h20v48h-20z" style="fill:#198058"/><path d="M188 232h24v68h-24z" style="fill:#e78244"/><path d="M232 196h20v104h-20z" style="fill:#ffc066"/></svg>