<svg fill="#75b22c" xmlns="http://www.w3.org/2000/svg" width="1920" height="2560" preserveAspectRatio="xMinYMin slice"><path d="m689.65,1780.02l-124.27,71.75a-55.56,-55.56 0 0 1 -55.4,0l-124.28,-71.75a-55.56,-55.56 0 0 1 -27.7,-47.99l0,-143.49a-55.56,-55.56 0 0 1 27.7,-47.99l124.28,-71.75a-55.57,-55.57 0 0 1 51.14,-2.2c1.43,0.93 2.89,1.84 4.37,2.7l124.28,71.75c1.4,0.82 2.83,1.57 4.27,2.31a-55.58,-55.58 0 0 1 23.34,45.18l0,143.49a-55.57,-55.57 0 0 1 -27.72,47.99zm-261.94,-1404.62l92.45,53.38a-36.18,-36.18 0 0 0 36.12,0l92.45,-53.38a-36.21,-36.21 0 0 0 18.05,-31.28l0,-106.75a-36.22,-36.22 0 0 0 -18.05,-31.28l-92.45,-53.38a-36.23,-36.23 0 0 0 -36.12,0l-92.45,53.38a-36.2,-36.2 0 0 0 -18.05,31.28l0,106.75a-36.19,-36.19 0 0 0 18.05,31.28zm-289.83,1483.63a-55.53,-55.53 0 0 0 25.73,-6.33c0.61,-0.37 1.2,-0.74 1.82,-1.05l124.28,-71.75c0.76,-0.44 1.55,-0.87 2.33,-1.29a-55.61,-55.61 0 0 0 25.54,-46.67l0,-143.59a-55.57,-55.57 0 0 0 -23.67,-45.41q-2.22,-1.13 -4.38,-2.36l-124.28,-71.75q-1.99,-1.16 -3.92,-2.41a-55.59,-55.59 0 0 0 -51.15,2.2l-110.81,63.98l0,255.06l110.81,63.96a-55.4,-55.4 0 0 0 27.7,7.42zm227.01,-353l124.28,-71.75a-55.56,-55.56 0 0 0 27.7,-47.99l0,-143.5a-55.55,-55.55 0 0 0 -27.7,-47.98l-124.28,-71.75a-55.56,-55.56 0 0 0 -55.4,0l-124.28,71.75a-55.57,-55.57 0 0 0 -27.7,47.98l0,143.5a-55.58,-55.58 0 0 0 27.7,47.99l124.28,71.75a-55.56,-55.56 0 0 0 55.4,0zm344.82,-382.51l-124.28,71.72a-55.55,-55.55 0 0 0 -27.7,47.98l0,143.54a-55.56,-55.56 0 0 0 27.7,47.99l124.28,71.75a-55.56,-55.56 0 0 0 55.4,0l124.27,-71.75a-55.57,-55.57 0 0 0 27.71,-47.99l0,-143.5a-55.56,-55.56 0 0 0 -27.71,-47.98l-124.27,-71.75a-55.56,-55.56 0 0 0 -55.4,0zm-101.56,-542.14l0,107.24a-36.48,-36.48 0 0 0 18.19,31.51l92.88,53.63a-36.46,-36.46 0 0 0 36.38,0l92.88,-53.63a-36.48,-36.48 0 0 0 18.19,-31.51l0,-107.24a-36.49,-36.49 0 0 0 -18.19,-31.51l-92.88,-53.63a-36.51,-36.51 0 0 0 -36.38,0l-92.88,53.63a-36.49,-36.49 0 0 0 -18.19,31.51zm-491.07,804.72l0,-143.49a-55.58,-55.58 0 0 0 -25.53,-46.66c-0.78,-0.42 -1.57,-0.86 -2.34,-1.3l-89.84,-51.87l0,343.28l90,-51.96a-55.56,-55.56 0 0 0 27.7,-47.99zm407.68,-313.6a-23.76,-23.76 0 0 0 23.74,0l72.03,-41.58a-23.8,-23.8 0 0 0 11.88,-20.56l0,-83.19a-23.79,-23.79 0 0 0 -11.88,-20.55l-72.03,-41.59a-23.77,-23.77 0 0 0 -23.74,0l-72.03,41.59a-23.79,-23.79 0 0 0 -11.88,20.55l0,83.19a-23.8,-23.8 0 0 0 11.88,20.56l72.03,41.58zm-387.93,94.97a-55.4,-55.4 0 0 0 27.71,-7.4l124.28,-71.75a-55.56,-55.56 0 0 0 27.7,-47.99l0,-143.5a-55.56,-55.56 0 0 0 -27.7,-47.99l-124.29,-71.72a-55.61,-55.61 0 0 0 -55.4,0l-109.76,63.39l0,256.22l109.76,63.38a-55.4,-55.4 0 0 0 27.72,7.4l-0.02,-0.03zm231.02,-526.15l0,-36.59l-31.71,-18.31l-31.71,18.31l0,36.59l31.71,18.3l31.71,-18.3zm-279.5,101.29a-55.56,-55.56 0 0 0 27.7,-47.99l0,-143.52a-55.56,-55.56 0 0 0 -27.7,-47.99l-88.98,-51.37l0,342.22l88.98,-51.36zm601.75,1728.93a-55.56,-55.56 0 0 0 27.7,-47.99l0,-143.5a-55.56,-55.56 0 0 0 -27.7,-47.99l-124.28,-71.75a-55.59,-55.59 0 0 0 -55.4,0l-124.27,71.75a-55.57,-55.57 0 0 0 -27.71,47.99l0,143.48a-55.57,-55.57 0 0 0 27.71,48.01l124.26,71.75a-55.12,-55.12 0 0 0 19.22,6.72l16.97,0a-55.12,-55.12 0 0 0 19.22,-6.72l124.28,-71.75zm-399.79,-0.19a-55.57,-55.57 0 0 0 27.71,-47.99l0,-143.5a-55.58,-55.58 0 0 0 -23.95,-45.6c-1.47,-0.74 -2.94,-1.53 -4.37,-2.36l-124.28,-71.79c-1.22,-0.71 -2.41,-1.44 -3.59,-2.2a-55.55,-55.55 0 0 0 -51.22,2.16l-111.25,64.28l0,254.53l111.25,64.23a-55.4,-55.4 0 0 0 20.37,6.91l14.63,0a-55.26,-55.26 0 0 0 20.37,-6.91l124.31,-71.75zm578.2,-567.62l-108.45,-62.62a-46,-46 0 0 0 -45.83,0l-108.45,62.62a-46,-46 0 0 0 -22.91,39.72l0,125.21a-46,-46 0 0 0 22.91,39.72l108.45,62.58a-46,-46 0 0 0 45.83,0l108.45,-62.63a-46,-46 0 0 0 22.91,-39.72l0,-125.23a-46,-46 0 0 0 -22.91,-39.65l0,-0.01zm-379.18,-17.62l-124.27,-71.75a-55.56,-55.56 0 0 0 -55.4,0l-124.28,71.75a-55.56,-55.56 0 0 0 -27.7,47.99l0,143.52a-55.56,-55.56 0 0 0 27.7,47.99l124.28,71.75a-55.63,-55.63 0 0 0 55.4,0l124.27,-71.75a-55.57,-55.57 0 0 0 27.71,-47.99l0,-143.5a-55.57,-55.57 0 0 0 -27.71,-47.99l0,-0.01z" class="layer"/></svg>