<svg fill="#75b22c" viewBox="0 0 1920 1440" preserveAspectRatio="xMinYMin slice" xmlns="http://www.w3.org/2000/svg">
    <path fill-opacity=".2"
          d="M827.33,1229.91c1.64,7,.77,14.37-5.13,18.57-5.28,3.75-12.56,3.06-18.65.87-5.55-2-10.94-5.32-13.7-10.53a19,19,0,0,1-.25-16.16,21.92,21.92,0,0,1,10-10.48c4.14-2.15,7.54-2.84,12.11-1.32a21.33,21.33,0,0,1,9.9,7A31.69,31.69,0,0,1,827.33,1229.91ZM1920,170.18V1294.47A788.66,788.66,0,0,1,1717.55,1440H1077.68c-28.9-45-33.44-98.77-33.39-160.37.08-112.84-26.42-165-114.65-239.78-64.27-54.45-157.06-109-159-201.26s95.56-151,186.46-170.73,192.14-21.33,264.26-77.07c128.71-99.48,95.51-311.93,199.66-436,52.82-62.91,133.47-89.9,218.2-87.89C1737.65,64.59,1844,102.71,1920,170.18Zm-298.69,72.69c-.07-21.88-28.89-27.33-45.33-19.61a35.21,35.21,0,0,0-18.3,20.81c-2.93,9.13-1.34,20.39,6.22,26.28,5.62,4.38,13.3,5,20.39,4.36,8.91-.81,17.85-3.47,24.94-8.93S1621.34,251.82,1621.31,242.87ZM698.71,691.79c-12.48-33-49.34-48-82.88-45.38-50,3.91-113.57,66.47-85.57,122,10.48,20.79,31.72,34,53.92,37.84,55,9.58,128.18-32.37,118.13-100.43A67.79,67.79,0,0,0,698.71,691.79Zm272.92-108.1c60.69,33.94,139.29,22,195.48-13.77,43.31-27.54,77.19-71.38,93.44-121.8,13.46-41.75,15-88.79-1-130.11s-50.56-75.82-92.07-85.25-88.39,9.32-108.73,47.79c-10.92,20.67-14,45.18-25,65.85a100.26,100.26,0,0,1-6.58,10.73c-14.08,19.33-34.79,33.45-54.33,47.69-19.85,14.48-42.9,31.47-52.72,54.88a77.22,77.22,0,0,0-4.27,13.46C902.19,519.33,932.49,561.8,971.63,583.69Zm33.92,632.93c-3.89-35.78-20.87-72.39-44.93-96.88s-54.72-36.37-81.13-31.44c-20.65,3.86-39.9,20.9-39.94,48.32,0,30,22.44,61.26,20.81,90.81-.92,16.84-9.74,30.79-7.05,48.29,2.82,18.36,17.3,33,31.19,41.32,31.26,18.73,66.52,17.35,90.44-3.53s35.72-60.61,30.29-101.89Z"/>
    <path fill-opacity=".5"
          d="M915.94,473.16a77.22,77.22,0,0,1,4.27-13.46c9.82-23.41,32.87-40.4,52.72-54.88,19.54-14.24,40.25-28.36,54.33-47.69a93.18,93.18,0,0,0,6.15-9.56c10.78-19.29,14-42.09,24.79-61.37,20.09-35.9,65.79-53.7,106.06-45.29s73.64,40.17,88.78,78.42,13.28,81.95-.14,120.84c-16.21,47-49.5,88-91.82,113.9-54.9,33.65-131.39,45.43-190.09,14.4C935.17,549.54,907.2,513.42,915.94,473.16Zm-94.29,744.73a21.33,21.33,0,0,0-9.9-7c-4.57-1.52-8-.83-12.11,1.32a21.92,21.92,0,0,0-10,10.48,19,19,0,0,0,.25,16.16c2.76,5.21,8.15,8.54,13.7,10.53,6.09,2.19,13.37,2.88,18.65-.87,5.9-4.2,6.77-11.61,5.13-18.57A31.69,31.69,0,0,0,821.65,1217.89ZM1920,170.18V1294.47A788.66,788.66,0,0,1,1717.55,1440H1095c-28.9-45-33.44-98.77-33.4-160.37.09-112.84-26.41-165-114.64-239.78-64.28-54.45-157.06-109-159-201.26s95.56-151,186.46-170.73,192.14-21.33,264.26-77.07c128.71-99.48,95.5-311.93,199.66-436,49.2-58.6,122.54-86,200.84-87.89C1737.65,64.59,1844,102.71,1920,170.18Zm-344,53.08a35.21,35.21,0,0,0-18.3,20.81c-2.93,9.13-1.34,20.39,6.22,26.28,5.62,4.38,13.3,5,20.39,4.36,8.91-.81,17.85-3.47,24.94-8.93s12.11-14,12.08-22.91C1621.24,221,1592.42,215.54,1576,223.26Zm-574,996.78c-4.26-33.37-20-67.83-41.55-91.18s-48.64-35.15-71.57-31.19c-17.93,3.09-34.33,18.48-33.7,44,.68,27.94,21.06,57.52,20.35,85-.4,15.64-7.77,28.4-5,44.74,2.9,17.14,15.89,31.1,28.22,39.18,27.74,18.17,58.48,17.74,78.85-1.11s29.72-55.5,24-94ZM678,685.33c-17.16-23.75-52.56-29.32-81.78-21.69C552.63,675,507.91,734.45,543,773.17c13.13,14.51,34.37,21.28,54.74,20.61,50.52-1.65,107.52-46.59,86-98.11A51.27,51.27,0,0,0,678,685.33Z"/>
    <path d="M671.61,699.81c17.24,46.29-30.77,85.67-72.85,86.47-17,.33-34.56-6-45.31-19.13-28.69-35,9.27-87.54,45.67-97.11,24.42-6.42,53.82-1,67.81,20.46A46.88,46.88,0,0,1,671.61,699.81ZM971,568.47c58.7,31,135.19,19.25,190.09-14.4,42.32-25.93,75.61-66.93,91.82-113.9,13.42-38.89,15.28-82.59.14-120.84s-48.51-70-88.78-78.42-86,9.39-106.06,45.29c-10.78,19.28-14,42.08-24.79,61.37a93.18,93.18,0,0,1-6.15,9.56c-14.08,19.33-34.79,33.45-54.33,47.69-19.85,14.48-42.9,31.47-52.72,54.88a77.22,77.22,0,0,0-4.27,13.46C907.2,513.42,935.17,549.54,971,568.47ZM821.65,1217.89a21.33,21.33,0,0,0-9.9-7c-4.57-1.52-8-.83-12.11,1.32a21.92,21.92,0,0,0-10,10.48,19,19,0,0,0,.25,16.16c2.76,5.21,8.15,8.54,13.7,10.53,6.09,2.19,13.37,2.88,18.65-.87,5.9-4.2,6.77-11.61,5.13-18.57A31.69,31.69,0,0,0,821.65,1217.89ZM1920,257.8v901.68c-70.32,93.89-160.91,173.31-266.78,227.72-37.63,19.33-80,37.33-123.65,52.8h-392c-60.36-46.76-66.44-110.72-64.37-188.45,2.77-103.72-19.88-151.07-97.62-217.68-56.64-48.53-139-96.48-138.57-181.23s89.72-141,172.12-161.37,173.69-24.18,240-77.14c118.38-94.51,93.5-289,190.33-405.5,103.33-124.33,313.9-105.42,434,2.82Q1898.3,233.88,1920,257.8Zm-298.69-14.93c-.07-21.88-28.89-27.33-45.33-19.61a35.21,35.21,0,0,0-18.3,20.81c-2.93,9.13-1.34,20.39,6.22,26.28,5.62,4.38,13.3,5,20.39,4.36,8.91-.81,17.85-3.47,24.94-8.93S1621.34,251.82,1621.31,242.87ZM991.13,1217.75c-4.06-28.83-18-58.52-36.83-78.55s-42.26-30-61.95-26.42c-15.39,2.81-29.32,16.25-28.48,38.3.92,24.16,18.8,49.59,18.51,73.34-.16,13.52-6.35,24.62-3.77,38.73,2.7,14.81,14,26.78,24.74,33.67,24.08,15.5,50.53,14.89,67.84-1.57s24.92-48.25,19.54-81.53Z"/>
</svg>