<?xml version="1.0"?>
<svg width="260" height="249" fill="#75b22c" xmlns="http://www.w3.org/2000/svg" xmlns:svg="http://www.w3.org/2000/svg" enable-background="new 0 0 260 249" version="1.1" xml:space="preserve">
 <g class="layer">
  <title>Layer 1</title>
  <path d="m196.79,232.68l-4.07,-53.97l16.19,-28.84c2.45,0.51 4.88,0.71 7.43,0.71c20.17,0 36.56,-16.41 36.56,-36.59c0,-5.2 -1.12,-10.09 -2.96,-14.47c3.06,-4.08 4.79,-9.38 4.79,-15.09c0,-15.08 -12.22,-27.32 -27.29,-27.32c-4.28,0 -8.35,1.02 -12.02,2.76c-0.77,-3.05 -2.19,-5.87 -4.09,-8.33c-0.18,5.89 -1.7,11.65 -4.47,16.79c1.63,4.9 2.45,10.09 2.45,15.39c0,27.01 -22,49.03 -48.98,49.03c-1.33,0 -2.55,-0.1 -3.87,-0.2l-4.89,8.74c3.65,1.58 7.69,2.46 11.92,2.46c1.43,0 2.85,-0.1 4.18,-0.31l13.03,24.16c-0.28,13.29 -3.54,54.67 -4.24,63.39c-9.47,-0.6 -19.46,-1.03 -29.83,-1.26c-0.67,-0.01 -1.36,-0.02 -2.05,-0.04c-2.06,-0.03 -4.14,-0.06 -6.24,-0.08l-4.38,-73.73l18.03,-32.2c2.65,0.51 5.4,0.82 8.25,0.82c22.61,0 40.84,-18.35 40.84,-40.88c0,-5.7 -1.22,-11.2 -3.36,-16.2c3.36,-4.89 5.3,-10.81 5.3,-17.22c0,-16.82 -13.65,-30.47 -30.45,-30.47c-4.78,0 -9.27,1.02 -13.34,3.05c-2.96,-11.61 -14.46,-20.78 -27.7,-20.78c-12.93,0 -23.42,8.65 -26.48,19.86c-2.65,-1.01 -5.5,-1.52 -8.55,-1.52c-13.65,0 -24.64,11.1 -24.64,24.66c0,5.7 1.93,11 5.19,15.18c-5.7,6.01 -9.17,14.07 -9.17,23.04c0,18.54 14.97,33.53 33.5,33.53c1.63,0 3.16,-0.1 4.69,-0.31l14.56,27c-0.36,14.39 -3.79,71.67 -4.68,86.22c-1.38,0.02 -2.75,0.05 -4.12,0.07l0,0.06c-9.57,0.23 -18.82,0.64 -27.61,1.2c-0.74,-9.32 -3.96,-50.04 -4.22,-63.09l13.03,-24.15c1.33,0.19 2.75,0.31 4.18,0.31c4.65,0 9.05,-1.06 12.96,-2.96l-8.79,-16.2c-23.01,0 -41.65,-18.76 -41.65,-41.68c0,-8.56 2.55,-16.72 7.33,-23.65c-2.33,-4.48 -3.46,-9.48 -3.46,-14.57c0,-0.76 0.03,-1.51 0.07,-2.26c-9.06,2.12 -16.22,8.88 -18.4,17.44c-3.67,-1.84 -7.64,-2.74 -12.02,-2.74c-15.07,0 -27.29,12.22 -27.29,27.31c0,5.41 1.73,10.7 4.79,15.09c-1.94,4.48 -2.96,9.38 -2.96,14.47c0,20.18 16.39,36.59 36.56,36.59c2.55,0 4.99,-0.31 7.43,-0.71l16.19,28.85l-4.05,53.65c-38.35,3.9 -64.08,11.07 -64.08,19.32l261,0c0,-8.26 -25.69,-15.42 -64.06,-19.32zm-128.61,-66.7l-9.68,-17.84c3.57,-1.53 6.92,-3.57 9.78,-6.11c0.1,-0.1 0.2,-0.1 0.31,-0.2c-0.1,3.87 -0.31,18.35 -0.41,24.15zm11.31,-25.89l0.31,0c1.94,1.02 4.07,1.84 6.31,2.35l-6.41,12.84c-0.1,-3.57 -0.2,-12.94 -0.2,-15.18zm41.05,-10.87l-7.14,-14.29c2.45,-0.61 4.89,-1.53 7.03,-2.65l0.31,0c0,2.45 -0.1,12.96 -0.2,16.94zm12.44,-15c0.2,0.1 0.31,0.1 0.41,0.2c3.26,2.86 6.93,5.1 10.91,6.84l-10.81,19.9c-0.2,-6.53 -0.31,-22.76 -0.51,-26.94zm48.04,41.05l-6.41,-12.84c2.24,-0.51 4.37,-1.33 6.31,-2.35l0.31,0c-0.1,2.24 -0.1,11.61 -0.2,15.18zm11.1,-13.45c0.1,0.1 0.2,0.1 0.31,0.2c2.85,2.54 6.21,4.58 9.78,6.11l-9.68,17.84c-0.1,-5.81 -0.31,-20.29 -0.41,-24.15z" id="svg_1"/>
 </g>
</svg>